<svg width="346" height="85" viewBox="0 0 346 85" fill="none" xmlns="http://www.w3.org/2000/svg">
<path fill-rule="evenodd" clip-rule="evenodd" d="M34.62 82.27C53.69 82.27 69.24 66.72 69.24 47.65C69.24 28.58 53.69 13.03 34.62 13.03C15.55 13.03 0 28.58 0 47.65C0 66.72 15.55 82.27 34.62 82.27Z" fill="#F5A921"/>
<path fill-rule="evenodd" clip-rule="evenodd" d="M19.55 2.06H69.29C73.36 2.06 77.71 5.38999 78.95 9.45999L98.91 74.87C100.15 78.94 97.84 82.27 93.77 82.27H44.03C39.96 82.27 35.61 78.94 34.37 74.87L14.41 9.45999C13.16 5.38999 15.48 2.06 19.55 2.06Z" fill="white"/>
<path fill-rule="evenodd" clip-rule="evenodd" d="M19.55 0H69.29C71.79 0 74.33 1.00001 76.43 2.60001C78.5 4.19001 80.17 6.4 80.92 8.87L100.88 74.28C101.17 75.24 101.31 76.16 101.31 77.02C101.31 78.66 100.83 80.15 99.96 81.36C99.08 82.58 97.82 83.49 96.26 83.97C95.48 84.21 94.64 84.34 93.77 84.34H44.03C41.53 84.34 38.99 83.34 36.89 81.74C34.82 80.15 33.16 77.93 32.4 75.47L12.44 10.06C12.15 9.1 12.01 8.18001 12.01 7.32001C12.01 5.68001 12.49 4.19001 13.36 2.98001C14.24 1.76001 15.5 0.849995 17.06 0.369995C17.84 0.119995 18.67 0 19.55 0ZM69.29 4.12H19.55C19.06 4.12 18.62 4.18001 18.25 4.29001C17.58 4.49001 17.05 4.87 16.69 5.37C16.33 5.87 16.13 6.54 16.13 7.31C16.13 7.81 16.21 8.33002 16.37 8.86002L36.33 74.27C36.82 75.88 37.95 77.36 39.38 78.46C40.79 79.54 42.45 80.21 44.02 80.21H93.76C94.25 80.21 94.69 80.15 95.06 80.04C95.73 79.84 96.26 79.46 96.62 78.96C96.98 78.45 97.18 77.79 97.18 77.02C97.18 76.52 97.1 76 96.94 75.47L76.98 10.06C76.49 8.45 75.36 6.97 73.93 5.87C72.53 4.79 70.87 4.12 69.29 4.12Z" fill="#57445C"/>
<path fill-rule="evenodd" clip-rule="evenodd" d="M48.8 82.27H101.2C105.53 82.27 109.07 78.73 109.07 74.4V70.82C109.07 66.49 105.53 62.95 101.2 62.95H48.8C47.62 62.95 46.5 63.21 45.49 63.68C48.99 65.13 51.45 68.58 51.45 72.6C51.45 76.62 48.99 80.07 45.49 81.52C46.5 82.01 47.62 82.27 48.8 82.27Z" fill="#6D5677"/>
<path fill-rule="evenodd" clip-rule="evenodd" d="M50.71 80.21H101.21C102.8 80.21 104.26 79.56 105.31 78.5C106.36 77.44 107.02 76 107.02 74.4V70.82C107.02 69.23 106.37 67.77 105.31 66.72C104.26 65.67 102.8 65.01 101.21 65.01H50.71C51.01 65.36 51.28 65.73 51.54 66.11C52.79 67.98 53.51 70.21 53.51 72.61C53.51 75.01 52.78 77.24 51.54 79.11C51.28 79.5 51.01 79.86 50.71 80.21ZM101.2 84.33H48.8C48.09 84.33 47.37 84.25 46.66 84.09C46 83.94 45.36 83.73 44.75 83.46C44.24 83.27 43.81 82.87 43.58 82.33C43.14 81.28 43.64 80.08 44.69 79.64C46.09 79.06 47.28 78.07 48.11 76.83C48.91 75.63 49.38 74.18 49.38 72.62C49.38 71.05 48.91 69.6 48.11 68.41C47.28 67.17 46.09 66.18 44.69 65.6C44.23 65.41 43.84 65.06 43.62 64.57C43.14 63.54 43.58 62.32 44.61 61.84C45.25 61.54 45.94 61.3 46.65 61.15C47.36 60.99 48.08 60.91 48.79 60.91H101.19C103.92 60.91 106.41 62.03 108.21 63.83C110.01 65.63 111.12 68.11 111.12 70.84V74.42C111.12 77.15 110 79.64 108.21 81.43C106.42 83.22 103.94 84.33 101.2 84.33Z" fill="#57445C"/>
<path fill-rule="evenodd" clip-rule="evenodd" d="M41.74 47.65L33.76 22L43.19 21.92L51.22 47.64C50.26 47.68 49.47 47.65 48.61 47.65H41.74Z" fill="#F5A921"/>
<path fill-rule="evenodd" clip-rule="evenodd" d="M55.1701 47.65L45.8701 17.09L55.3001 17.01L64.6501 47.64C63.6901 47.68 62.9001 47.65 62.0401 47.65H55.1701Z" fill="#F5A921"/>
<path fill-rule="evenodd" clip-rule="evenodd" d="M68.3699 47.65L57.8999 12.71L67.3299 12.63L77.8499 47.64C76.8899 47.68 76.0999 47.65 75.2399 47.65H68.3699Z" fill="#F5A921"/>
<path fill-rule="evenodd" clip-rule="evenodd" d="M42.0401 54.06C41.3901 54.06 40.8601 53.53 40.8601 52.88C40.8601 52.23 41.3901 51.7 42.0401 51.7H83.6701C84.3201 51.7 84.8501 52.23 84.8501 52.88C84.8501 53.53 84.3201 54.06 83.6701 54.06H42.0401Z" fill="#57445C"/>
<path fill-rule="evenodd" clip-rule="evenodd" d="M34.1499 48.54L51.2199 33.07L65.1999 41.14L77.1999 30.18L79.9699 33.22L65.7599 46.2L51.7599 38.12L36.9099 51.58L34.1499 48.54Z" fill="#57445C"/>
<path fill-rule="evenodd" clip-rule="evenodd" d="M73.95 30.08C81.41 35.71 81.41 35.71 81.41 35.71L79.55 29.99L73.95 30.08Z" fill="#57445C"/>
<path fill-rule="evenodd" clip-rule="evenodd" d="M68.72 67.25H94.44H96.59H97.8999H98.74H100.05H102.2H105.35C105.5 67.25 105.65 67.26 105.79 67.27C105.64 67.08 105.48 66.89 105.31 66.72C104.26 65.67 102.8 65.01 101.21 65.01H98.06H95.91H93.7599H64.58H50.71C51.01 65.36 51.2799 65.73 51.5399 66.11C52.7899 67.98 53.5099 70.21 53.5099 72.61C53.5099 74.26 53.1599 75.84 52.5399 77.27C52.2599 77.91 51.9199 78.53 51.5399 79.11C51.2899 79.49 51.01 79.86 50.71 80.21H54.86C55.85 78.32 56.6299 76.22 56.8699 74.17C57.1199 72.11 56.83 70.08 55.67 68.35C55.41 67.97 55.14 67.6 54.84 67.25H63.1499H68.72Z" fill="white"/>
<path d="M128.11 59.51C124.46 59.51 121.21 58.89 118.35 57.64C115.49 56.39 113.25 54.57 111.62 52.17C109.99 49.77 109.12 46.87 109.03 43.46H119.33C119.38 44.95 119.76 46.29 120.48 47.49C121.2 48.69 122.2 49.64 123.47 50.33C124.74 51.03 126.27 51.37 128.04 51.37C129.58 51.37 130.91 51.12 132.04 50.61C133.17 50.11 134.06 49.4 134.7 48.49C135.35 47.58 135.67 46.5 135.67 45.25C135.67 43.81 135.31 42.61 134.59 41.65C133.87 40.69 132.9 39.88 131.67 39.2C130.45 38.53 129.03 37.92 127.42 37.36C125.81 36.81 124.14 36.24 122.42 35.67C118.39 34.33 115.34 32.57 113.28 30.41C111.22 28.25 110.18 25.39 110.18 21.84C110.18 18.82 110.9 16.22 112.34 14.06C113.78 11.9 115.8 10.24 118.39 9.09C120.98 7.94 123.93 7.36002 127.25 7.36002C130.66 7.36002 133.65 7.95 136.21 9.12C138.78 10.3 140.82 11.99 142.33 14.2C143.84 16.41 144.65 19 144.74 21.98H134.3C134.25 20.88 133.93 19.83 133.33 18.85C132.73 17.87 131.9 17.07 130.85 16.47C129.79 15.87 128.55 15.57 127.11 15.57C125.86 15.52 124.72 15.71 123.69 16.15C122.66 16.58 121.85 17.22 121.28 18.06C120.7 18.9 120.42 19.94 120.42 21.19C120.42 22.39 120.71 23.4 121.28 24.21C121.86 25.03 122.67 25.73 123.73 26.33C124.79 26.93 126.03 27.48 127.47 27.99C128.91 28.49 130.47 29.01 132.15 29.54C134.69 30.4 137.01 31.42 139.1 32.6C141.19 33.78 142.86 35.3 144.1 37.17C145.35 39.04 145.97 41.51 145.97 44.59C145.97 47.23 145.29 49.68 143.92 51.93C142.55 54.19 140.55 56.01 137.91 57.4C135.26 58.81 132 59.51 128.11 59.51Z" fill="#211F22"/>
<path d="M161.15 58.64L150.43 22.35H160.01L167.14 51.73H165.41L173.4 22.35H184.13L192.27 51.65L190.47 51.72L197.45 22.34H207.1L196.44 58.63H186.36L177.79 28.39H179.81L171.24 58.63H161.15V58.64Z" fill="#211F22"/>
<path d="M218.18 17.39C216.4 17.39 214.96 16.87 213.86 15.84C212.76 14.81 212.2 13.5 212.2 11.92C212.2 10.34 212.75 9.03 213.86 8C214.96 6.97 216.4 6.45001 218.18 6.45001C219.96 6.45001 221.41 6.97 222.54 8C223.67 9.03 224.23 10.34 224.23 11.92C224.23 13.5 223.67 14.81 222.54 15.84C221.41 16.87 219.95 17.39 218.18 17.39ZM213.28 58.64V22.35H223V58.64H213.28Z" fill="#211F22"/>
<path d="M232.79 58.64V6.80002H242.51V58.64H232.79Z" fill="#211F22"/>
<path d="M255.33 58.51V8.11002H275.99C279.49 8.11002 282.45 8.66002 284.85 9.77002C287.25 10.87 289.06 12.4 290.29 14.34C291.51 16.28 292.13 18.53 292.13 21.07C292.13 23.61 291.59 25.75 290.51 27.48C289.43 29.21 287.98 30.54 286.15 31.48C284.32 32.42 282.36 32.96 280.25 33.1L281.33 32.31C283.63 32.41 285.69 33.02 287.49 34.15C289.29 35.28 290.7 36.78 291.74 38.65C292.78 40.52 293.29 42.56 293.29 44.77C293.29 47.46 292.65 49.83 291.38 51.9C290.11 53.96 288.24 55.58 285.76 56.76C283.29 57.94 280.28 58.52 276.72 58.52H255.33V58.51ZM265.05 29.13H274.41C276.95 29.13 278.9 28.55 280.24 27.4C281.58 26.25 282.26 24.62 282.26 22.5C282.26 20.44 281.59 18.82 280.24 17.64C278.9 16.46 276.93 15.88 274.34 15.88H265.05V29.13ZM265.05 50.59H275.2C277.79 50.59 279.81 49.99 281.25 48.79C282.69 47.59 283.41 45.86 283.41 43.61C283.41 41.35 282.66 39.59 281.18 38.32C279.69 37.05 277.65 36.41 275.06 36.41H265.05V50.59Z" fill="#211F22"/>
<path d="M297.95 58.51L316.31 8.11002H327.33L345.69 58.51H335.39L321.78 19.2L308.1 58.51H297.95ZM306.02 47.06L308.61 39.5H334.24L336.76 47.06H306.02Z" fill="#211F22"/>
</svg>
